<mxfile host="app.diagrams.net" agent="Mozilla/5.0 (Windows NT 10.0; Win64; x64) AppleWebKit/537.36 (KHTML, like Gecko) Chrome/129.0.0.0 Safari/537.36 Edg/129.0.0.0" version="24.7.16">
  <diagram id="C5RBs43oDa-KdzZeNtuy" name="Page-1">
    <mxGraphModel dx="2026" dy="1117" grid="1" gridSize="10" guides="1" tooltips="1" connect="1" arrows="1" fold="1" page="1" pageScale="1" pageWidth="827" pageHeight="1169" math="0" shadow="0">
      <root>
        <mxCell id="WIyWlLk6GJQsqaUBKTNV-0" />
        <mxCell id="WIyWlLk6GJQsqaUBKTNV-1" parent="WIyWlLk6GJQsqaUBKTNV-0" />
        <mxCell id="QLcfwFrTYVMNelbYBag8-2" value="" style="edgeStyle=orthogonalEdgeStyle;rounded=0;orthogonalLoop=1;jettySize=auto;html=1;" edge="1" parent="WIyWlLk6GJQsqaUBKTNV-1" source="WIyWlLk6GJQsqaUBKTNV-3" target="QLcfwFrTYVMNelbYBag8-0">
          <mxGeometry relative="1" as="geometry" />
        </mxCell>
        <mxCell id="WIyWlLk6GJQsqaUBKTNV-3" value="Scan QR Code" style="rounded=1;whiteSpace=wrap;html=1;fontSize=12;glass=0;strokeWidth=1;shadow=0;" parent="WIyWlLk6GJQsqaUBKTNV-1" vertex="1">
          <mxGeometry x="354" y="60" width="120" height="40" as="geometry" />
        </mxCell>
        <mxCell id="QLcfwFrTYVMNelbYBag8-3" style="edgeStyle=orthogonalEdgeStyle;rounded=0;orthogonalLoop=1;jettySize=auto;html=1;" edge="1" parent="WIyWlLk6GJQsqaUBKTNV-1" source="QLcfwFrTYVMNelbYBag8-0">
          <mxGeometry relative="1" as="geometry">
            <mxPoint x="294" y="410" as="targetPoint" />
            <Array as="points">
              <mxPoint x="414" y="340" />
              <mxPoint x="295" y="340" />
            </Array>
          </mxGeometry>
        </mxCell>
        <mxCell id="QLcfwFrTYVMNelbYBag8-4" style="edgeStyle=orthogonalEdgeStyle;rounded=0;orthogonalLoop=1;jettySize=auto;html=1;" edge="1" parent="WIyWlLk6GJQsqaUBKTNV-1" source="QLcfwFrTYVMNelbYBag8-0">
          <mxGeometry relative="1" as="geometry">
            <mxPoint x="534" y="410" as="targetPoint" />
          </mxGeometry>
        </mxCell>
        <mxCell id="QLcfwFrTYVMNelbYBag8-0" value="Landing Page with:&lt;div&gt;&lt;br&gt;&lt;div&gt;- Name*: &quot;John&quot;&lt;/div&gt;&lt;div&gt;- Email*: johndoe@test.com&lt;/div&gt;&lt;div&gt;- Nationality*: GB&lt;/div&gt;&lt;div&gt;- Opt In commercial activities: 1&lt;/div&gt;&lt;/div&gt;" style="rounded=1;whiteSpace=wrap;html=1;" vertex="1" parent="WIyWlLk6GJQsqaUBKTNV-1">
          <mxGeometry x="289" y="150" width="250" height="120" as="geometry" />
        </mxCell>
        <mxCell id="QLcfwFrTYVMNelbYBag8-7" value="" style="edgeStyle=orthogonalEdgeStyle;rounded=0;orthogonalLoop=1;jettySize=auto;html=1;" edge="1" parent="WIyWlLk6GJQsqaUBKTNV-1" source="QLcfwFrTYVMNelbYBag8-5" target="QLcfwFrTYVMNelbYBag8-6">
          <mxGeometry relative="1" as="geometry" />
        </mxCell>
        <mxCell id="QLcfwFrTYVMNelbYBag8-5" value="POST" style="ellipse;whiteSpace=wrap;html=1;aspect=fixed;" vertex="1" parent="WIyWlLk6GJQsqaUBKTNV-1">
          <mxGeometry x="510" y="410" width="50" height="50" as="geometry" />
        </mxCell>
        <mxCell id="QLcfwFrTYVMNelbYBag8-14" value="" style="edgeStyle=orthogonalEdgeStyle;rounded=0;orthogonalLoop=1;jettySize=auto;html=1;" edge="1" parent="WIyWlLk6GJQsqaUBKTNV-1" source="QLcfwFrTYVMNelbYBag8-6" target="QLcfwFrTYVMNelbYBag8-13">
          <mxGeometry relative="1" as="geometry" />
        </mxCell>
        <mxCell id="QLcfwFrTYVMNelbYBag8-6" value="&lt;div&gt;&lt;b&gt;Tenant:&lt;/b&gt; Palmares&lt;/div&gt;&lt;b&gt;Code:&lt;/b&gt;&amp;nbsp;&quot;WELCOME&quot; &amp;amp; &quot;NAME&quot; &amp;amp; YEAR&lt;div&gt;&lt;b&gt;Class:&lt;/b&gt; &quot;Green Fee Direct&quot; -&lt;span style=&quot;background-color: initial;&quot;&gt;&amp;nbsp;[ID]=1&lt;/span&gt;&lt;/div&gt;&lt;div&gt;&lt;span style=&quot;background-color: initial;&quot;&gt;&lt;b&gt;End Date:&lt;/b&gt; 31-12-2024&lt;/span&gt;&lt;/div&gt;&lt;div&gt;&lt;b&gt;Usage Limit:&lt;/b&gt; 1&lt;/div&gt;&lt;div&gt;&lt;b&gt;Discount&lt;/b&gt;: 20&lt;/div&gt;" style="rounded=1;whiteSpace=wrap;html=1;align=left;" vertex="1" parent="WIyWlLk6GJQsqaUBKTNV-1">
          <mxGeometry x="415" y="510" width="240" height="140" as="geometry" />
        </mxCell>
        <mxCell id="QLcfwFrTYVMNelbYBag8-10" value="" style="edgeStyle=orthogonalEdgeStyle;rounded=0;orthogonalLoop=1;jettySize=auto;html=1;" edge="1" parent="WIyWlLk6GJQsqaUBKTNV-1" source="QLcfwFrTYVMNelbYBag8-8" target="QLcfwFrTYVMNelbYBag8-9">
          <mxGeometry relative="1" as="geometry" />
        </mxCell>
        <mxCell id="QLcfwFrTYVMNelbYBag8-8" value="EMAIL" style="ellipse;whiteSpace=wrap;html=1;aspect=fixed;" vertex="1" parent="WIyWlLk6GJQsqaUBKTNV-1">
          <mxGeometry x="270" y="410" width="50" height="50" as="geometry" />
        </mxCell>
        <mxCell id="QLcfwFrTYVMNelbYBag8-18" style="edgeStyle=orthogonalEdgeStyle;rounded=0;orthogonalLoop=1;jettySize=auto;html=1;entryX=0;entryY=0.5;entryDx=0;entryDy=0;" edge="1" parent="WIyWlLk6GJQsqaUBKTNV-1" source="QLcfwFrTYVMNelbYBag8-9" target="QLcfwFrTYVMNelbYBag8-15">
          <mxGeometry relative="1" as="geometry" />
        </mxCell>
        <mxCell id="QLcfwFrTYVMNelbYBag8-9" value="&lt;div&gt;To: [EMAIL]&lt;/div&gt;&lt;div&gt;&lt;br&gt;&lt;/div&gt;Dear [NAME],&lt;div&gt;&lt;br&gt;&lt;/div&gt;&lt;div&gt;Thank you for subscribing to our newsletter.&lt;/div&gt;&lt;div&gt;&lt;br&gt;&lt;/div&gt;&lt;div&gt;Se bellow the code to use in Palmares:&lt;/div&gt;&lt;div&gt;[PROMOCODE]&lt;/div&gt;&lt;div&gt;&lt;br&gt;&lt;/div&gt;" style="rounded=1;whiteSpace=wrap;html=1;" vertex="1" parent="WIyWlLk6GJQsqaUBKTNV-1">
          <mxGeometry x="185" y="510" width="220" height="510" as="geometry" />
        </mxCell>
        <mxCell id="QLcfwFrTYVMNelbYBag8-11" value="SUBMIT" style="ellipse;whiteSpace=wrap;html=1;aspect=fixed;" vertex="1" parent="WIyWlLk6GJQsqaUBKTNV-1">
          <mxGeometry x="389" y="310" width="50" height="50" as="geometry" />
        </mxCell>
        <mxCell id="QLcfwFrTYVMNelbYBag8-19" value="" style="edgeStyle=orthogonalEdgeStyle;rounded=0;orthogonalLoop=1;jettySize=auto;html=1;" edge="1" parent="WIyWlLk6GJQsqaUBKTNV-1" source="QLcfwFrTYVMNelbYBag8-13" target="QLcfwFrTYVMNelbYBag8-9">
          <mxGeometry relative="1" as="geometry" />
        </mxCell>
        <mxCell id="QLcfwFrTYVMNelbYBag8-13" value="&lt;b&gt;PROMOCODE&lt;/b&gt;&lt;div&gt;&lt;br&gt;&lt;/div&gt;&lt;div&gt;&lt;span style=&quot;text-align: left;&quot;&gt;WELCOMEJOHN2024&lt;/span&gt;&lt;br&gt;&lt;/div&gt;" style="rounded=0;whiteSpace=wrap;html=1;" vertex="1" parent="WIyWlLk6GJQsqaUBKTNV-1">
          <mxGeometry x="457.5" y="735" width="155" height="60" as="geometry" />
        </mxCell>
        <mxCell id="QLcfwFrTYVMNelbYBag8-15" value="END" style="rhombus;whiteSpace=wrap;html=1;" vertex="1" parent="WIyWlLk6GJQsqaUBKTNV-1">
          <mxGeometry x="377.5" y="1030" width="80" height="80" as="geometry" />
        </mxCell>
      </root>
    </mxGraphModel>
  </diagram>
</mxfile>
